<svg id="SvgjsSvg1128" width="982.5633697509766" height="492.75177001953125" xmlns="http://www.w3.org/2000/svg" version="1.1" xmlns:xlink="http://www.w3.org/1999/xlink" xmlns:svgjs="http://svgjs.com/svgjs"><defs id="SvgjsDefs1129"><marker id="SvgjsMarker1164" markerWidth="16" markerHeight="12" refX="16" refY="6" viewBox="0 0 16 12" orient="auto" markerUnits="userSpaceOnUse"><path id="SvgjsPath1165" d="M0,2 L14,6 L0,11 L0,2" fill="#323232" stroke="#323232" stroke-width="2"></path></marker><marker id="SvgjsMarker1168" markerWidth="16" markerHeight="12" refX="16" refY="6" viewBox="0 0 16 12" orient="auto" markerUnits="userSpaceOnUse"><path id="SvgjsPath1169" d="M0,2 L14,6 L0,11 L0,2" fill="#323232" stroke="#323232" stroke-width="2"></path></marker><marker id="SvgjsMarker1172" markerWidth="16" markerHeight="12" refX="16" refY="6" viewBox="0 0 16 12" orient="auto" markerUnits="userSpaceOnUse"><path id="SvgjsPath1173" d="M0,2 L14,6 L0,11 L0,2" fill="#323232" stroke="#323232" stroke-width="2"></path></marker><marker id="SvgjsMarker1188" markerWidth="16" markerHeight="12" refX="16" refY="6" viewBox="0 0 16 12" orient="auto" markerUnits="userSpaceOnUse"><path id="SvgjsPath1189" d="M0,2 L14,6 L0,11 L0,2" fill="#323232" stroke="#323232" stroke-width="2"></path></marker><marker id="SvgjsMarker1192" markerWidth="16" markerHeight="12" refX="16" refY="6" viewBox="0 0 16 12" orient="auto" markerUnits="userSpaceOnUse"><path id="SvgjsPath1193" d="M0,2 L14,6 L0,11 L0,2" fill="#323232" stroke="#323232" stroke-width="2"></path></marker><marker id="SvgjsMarker1244" markerWidth="16" markerHeight="12" refX="16" refY="6" viewBox="0 0 16 12" orient="auto" markerUnits="userSpaceOnUse"><path id="SvgjsPath1245" d="M0,2 L14,6 L0,11 L0,2" fill="#323232" stroke="#323232" stroke-width="2"></path></marker><marker id="SvgjsMarker1248" markerWidth="16" markerHeight="12" refX="16" refY="6" viewBox="0 0 16 12" orient="auto" markerUnits="userSpaceOnUse"><path id="SvgjsPath1249" d="M0,2 L14,6 L0,11 L0,2" fill="#323232" stroke="#323232" stroke-width="2"></path></marker></defs><g id="SvgjsG1130" transform="translate(25.000869750976562,77.00479125976562)"><path id="SvgjsPath1131" d="M 0 4Q 0 0 4 0L 213.7482509613037 0Q 217.7482509613037 0 217.7482509613037 4L 217.7482509613037 98Q 217.7482509613037 102 213.7482509613037 102L 4 102Q 0 102 0 98Z" stroke="#323232" stroke-width="2" fill-opacity="1" fill="#ffffff"></path><g id="SvgjsG1132"><text id="SvgjsText1133" font-family="微软雅黑" text-anchor="middle" font-size="13px" width="0" fill="#323232" font-weight="400" align="middle" anchor="middle" family="微软雅黑" size="13px" weight="400" font-style="" y="41.55" transform="rotate(0)"></text></g></g><g id="SvgjsG1134" transform="translate(447.5733664376395,25.004791259765625)"><path id="SvgjsPath1135" d="M 0 4Q 0 0 4 0L 505.9999999999999 0Q 509.9999999999999 0 509.9999999999999 4L 509.9999999999999 92Q 509.9999999999999 96 505.9999999999999 96L 4 96Q 0 96 0 92Z" stroke="#323232" stroke-width="2" fill-opacity="1" fill="#ffffff"></path><g id="SvgjsG1136"><text id="SvgjsText1137" font-family="微软雅黑" text-anchor="middle" font-size="13px" width="0" fill="#323232" font-weight="400" align="middle" anchor="middle" family="微软雅黑" size="13px" weight="400" font-style="" y="38.55" transform="rotate(0)"></text></g></g><g id="SvgjsG1138" transform="translate(89.75086975097656,262.7547912597656)"><path id="SvgjsPath1139" d="M 0 0L 161 0L 161 72L 0 72Z" stroke="#323232" stroke-width="2" fill-opacity="1" fill="#ffffff"></path><g id="SvgjsG1140"><text id="SvgjsText1141" font-family="微软雅黑" text-anchor="middle" font-size="20px" width="136" fill="#ff0000" font-weight="700" align="middle" anchor="middle" family="微软雅黑" size="20px" weight="700" font-style="" y="21" transform="rotate(0)"><tspan id="SvgjsTspan1142" dy="25" x="80.5"><tspan id="SvgjsTspan1143" style="text-decoration:;">Meta-Learner</tspan></tspan></text></g></g><g id="SvgjsG1144" transform="translate(408.75086975097656,167.75479125976562)"><path id="SvgjsPath1145" d="M 16.666666666666668 0L 83.33333333333333 0C 105.55555555555556 0 105.55555555555556 50 83.33333333333333 50L 16.666666666666668 50C -5.555555555555556 50 -5.555555555555556 0 16.666666666666668 0Z" stroke="#323232" stroke-width="2" fill-opacity="1" fill="#ffffff"></path><g id="SvgjsG1146"><text id="SvgjsText1147" font-family="微软雅黑" text-anchor="middle" font-size="18px" width="58" fill="#0000ff" font-weight="700" align="middle" anchor="middle" family="微软雅黑" size="18px" weight="700" font-style="" y="11.3" transform="rotate(0)"><tspan id="SvgjsTspan1148" dy="22" x="50"><tspan id="SvgjsTspan1149" style="text-decoration:;">Task 1</tspan></tspan></text></g></g><g id="SvgjsG1150" transform="translate(408.75086975097656,273.7547912597656)"><path id="SvgjsPath1151" d="M 16.666666666666668 0L 83.33333333333333 0C 105.55555555555556 0 105.55555555555556 50 83.33333333333333 50L 16.666666666666668 50C -5.555555555555556 50 -5.555555555555556 0 16.666666666666668 0Z" stroke="#323232" stroke-width="2" fill-opacity="1" fill="#ffffff"></path><g id="SvgjsG1152"><text id="SvgjsText1153" font-family="微软雅黑" text-anchor="middle" font-size="18px" width="58" fill="#0000ff" font-weight="700" align="middle" anchor="middle" family="微软雅黑" size="18px" weight="700" font-style="" y="11.3" transform="rotate(0)"><tspan id="SvgjsTspan1154" dy="22" x="50"><tspan id="SvgjsTspan1155" style="text-decoration:;">Task 2</tspan></tspan></text></g></g><g id="SvgjsG1156" transform="translate(408.75086975097656,379.7547912597656)"><path id="SvgjsPath1157" d="M 16.666666666666668 0L 83.33333333333333 0C 105.55555555555556 0 105.55555555555556 50 83.33333333333333 50L 16.666666666666668 50C -5.555555555555556 50 -5.555555555555556 0 16.666666666666668 0Z" stroke="#323232" stroke-width="2" fill-opacity="1" fill="#ffffff"></path><g id="SvgjsG1158"><text id="SvgjsText1159" font-family="微软雅黑" text-anchor="middle" font-size="18px" width="58" fill="#0000ff" font-weight="700" align="middle" anchor="middle" family="微软雅黑" size="18px" weight="700" font-style="" y="11.3" transform="rotate(0)"><tspan id="SvgjsTspan1160" dy="22" x="50"><tspan id="SvgjsTspan1161" style="text-decoration:;">Task 3</tspan></tspan></text></g></g><g id="SvgjsG1162"><path id="SvgjsPath1163" d="M250.75086975097656 298.7547912597656C 326.85606011273836 298.7547912597656 332.64567938921476 192.75479125976562 408.75086975097656 192.75479125976562" stroke="#323232" stroke-width="2" fill="none" marker-end="url(#SvgjsMarker1164)"></path></g><g id="SvgjsG1166"><path id="SvgjsPath1167" d="M250.75086975097656 298.7547912597656C 326.85606011273836 298.7547912597656 332.64567938921476 404.7547912597656 408.75086975097656 404.7547912597656" stroke="#323232" stroke-width="2" fill="none" marker-end="url(#SvgjsMarker1168)"></path></g><g id="SvgjsG1170"><path id="SvgjsPath1171" d="M250.75086975097656 298.7547912597656C 313.95086975097655 298.7547912597656 345.5508697509766 298.7547912597656 408.75086975097656 298.7547912597656" stroke="#323232" stroke-width="2" fill="none" marker-end="url(#SvgjsMarker1172)"></path></g><g id="SvgjsG1174" transform="translate(110.2517442703247,105.00479125976562)"><path id="SvgjsPath1175" d="M 0 28.5C 0 -9.5 118.49825096130371 -9.5 118.49825096130371 28.5C 118.49825096130371 66.5 0 66.5 0 28.5Z" stroke="#323232" stroke-width="2" fill-opacity="1" fill="#ffffff"></path><g id="SvgjsG1176"><text id="SvgjsText1177" font-family="微软雅黑" text-anchor="middle" font-size="18px" width="92" fill="#000000" font-weight="400" align="middle" anchor="middle" family="微软雅黑" size="18px" weight="400" font-style="" y="14.8" transform="rotate(0)"><tspan id="SvgjsTspan1178" dy="22" x="59.5"><tspan id="SvgjsTspan1179" style="text-decoration:;">Meta-Data</tspan></tspan></text></g></g><g id="SvgjsG1180" transform="translate(553.6883697509766,51.004791259765625)"><path id="SvgjsPath1181" d="M 0 22C 0 -7.333333333333333 107.625 -7.333333333333333 107.625 22C 107.625 51.333333333333336 0 51.333333333333336 0 22Z" stroke="#323232" stroke-width="2" fill-opacity="1" fill="#ffffff"></path><g id="SvgjsG1182"><text id="SvgjsText1183" font-family="微软雅黑" text-anchor="middle" font-size="16px" width="86" fill="#323232" font-weight="400" align="middle" anchor="middle" family="微软雅黑" size="16px" weight="400" font-style="" y="9.6" transform="rotate(0)"><tspan id="SvgjsTspan1184" dy="20" x="54"><tspan id="SvgjsTspan1185" style="text-decoration:;">Test Data 1</tspan></tspan></text></g></g><g id="SvgjsG1186"><path id="SvgjsPath1187" d="M749.5008697509766 95.00479125976562C 749.5008697509766 221.1631837669627 634.9092622581736 298.7547912597656 508.75086975097656 298.7547912597656" stroke="#323232" stroke-width="2" fill="none" marker-end="url(#SvgjsMarker1188)"></path></g><g id="SvgjsG1190"><path id="SvgjsPath1191" d="M882.5008697509766 95.00479125976562C 882.5008697509766 289.1734293041213 702.9195077953323 404.7547912597656 508.75086975097656 404.7547912597656" stroke="#323232" stroke-width="2" fill="none" marker-end="url(#SvgjsMarker1192)"></path></g><g id="SvgjsG1194" transform="translate(695.6883697509766,51.004791259765625)"><path id="SvgjsPath1195" d="M 0 22C 0 -7.333333333333333 107.625 -7.333333333333333 107.625 22C 107.625 51.333333333333336 0 51.333333333333336 0 22Z" stroke="#323232" stroke-width="2" fill-opacity="1" fill="#ffffff"></path><g id="SvgjsG1196"><text id="SvgjsText1197" font-family="微软雅黑" text-anchor="middle" font-size="16px" width="86" fill="#323232" font-weight="400" align="middle" anchor="middle" family="微软雅黑" size="16px" weight="400" font-style="" y="9.6" transform="rotate(0)"><tspan id="SvgjsTspan1198" dy="20" x="54"><tspan id="SvgjsTspan1199" style="text-decoration:;">Test Data 2</tspan></tspan></text></g></g><g id="SvgjsG1200" transform="translate(828.6883697509766,51.004791259765625)"><path id="SvgjsPath1201" d="M 0 22C 0 -7.333333333333333 107.625 -7.333333333333333 107.625 22C 107.625 51.333333333333336 0 51.333333333333336 0 22Z" stroke="#323232" stroke-width="2" fill-opacity="1" fill="#ffffff"></path><g id="SvgjsG1202"><text id="SvgjsText1203" font-family="微软雅黑" text-anchor="middle" font-size="16px" width="86" fill="#323232" font-weight="400" align="middle" anchor="middle" family="微软雅黑" size="16px" weight="400" font-style="" y="9.6" transform="rotate(0)"><tspan id="SvgjsTspan1204" dy="20" x="54"><tspan id="SvgjsTspan1205" style="text-decoration:;">Test Data 3</tspan></tspan></text></g></g><g id="SvgjsG1206" transform="translate(451.35801260811945,30.004791259765625)"><path id="SvgjsPath1207" d="M 0 0L 99 0L 99 32L 0 32Z" stroke="none" fill="none"></path><g id="SvgjsG1208"><text id="SvgjsText1209" font-family="微软雅黑" text-anchor="middle" font-size="18px" width="81" fill="#323232" font-weight="400" align="middle" anchor="middle" family="微软雅黑" size="18px" weight="400" font-style="" y="2.3000000000000003" transform="rotate(0)"><tspan id="SvgjsTspan1210" dy="22" x="49.5"><tspan id="SvgjsTspan1211" style="text-decoration:;">Few-Shot</tspan></tspan></text></g></g><g id="SvgjsG1212" transform="translate(26.503493309020996,80.00479125976562)"><path id="SvgjsPath1213" d="M 0 0L 83.74825096130371 0L 83.74825096130371 33L 0 33Z" stroke="none" fill="none"></path><g id="SvgjsG1214"><text id="SvgjsText1215" font-family="微软雅黑" text-anchor="middle" font-size="18px" width="69" fill="#323232" font-weight="400" align="middle" anchor="middle" family="微软雅黑" size="18px" weight="400" font-style="" y="2.8000000000000003" transform="rotate(0)"><tspan id="SvgjsTspan1216" dy="22" x="42"><tspan id="SvgjsTspan1217" style="text-decoration:;">Massive</tspan></tspan></text></g></g><g id="SvgjsG1218" transform="translate(190.75086975097656,338.7547912597656)"><path id="SvgjsPath1219" d="M 0 0L 99 0L 99 32L 0 32Z" stroke="none" fill="none"></path><g id="SvgjsG1220"><text id="SvgjsText1221" font-family="微软雅黑" text-anchor="middle" font-size="18px" width="98" fill="#323232" font-weight="400" align="middle" anchor="middle" family="微软雅黑" size="18px" weight="400" font-style="" y="2.3000000000000003" transform="rotate(0)"><tspan id="SvgjsTspan1222" dy="22" x="49.5"><tspan id="SvgjsTspan1223" style="text-decoration:;">Class ABCD</tspan></tspan></text></g></g><g id="SvgjsG1224" transform="translate(458.75086975097656,217.75479125976562)"><path id="SvgjsPath1225" d="M 0 0L 99 0L 99 32L 0 32Z" stroke="none" fill="none"></path><g id="SvgjsG1226"><text id="SvgjsText1227" font-family="微软雅黑" text-anchor="middle" font-size="18px" width="68" fill="#323232" font-weight="400" align="middle" anchor="middle" family="微软雅黑" size="18px" weight="400" font-style="" y="2.3000000000000003" transform="rotate(0)"><tspan id="SvgjsTspan1228" dy="22" x="49.5"><tspan id="SvgjsTspan1229" style="text-decoration:;">Class EF</tspan></tspan></text></g></g><g id="SvgjsG1230" transform="translate(458.75086975097656,328.7547912597656)"><path id="SvgjsPath1231" d="M 0 0L 99 0L 99 32L 0 32Z" stroke="none" fill="none"></path><g id="SvgjsG1232"><text id="SvgjsText1233" font-family="微软雅黑" text-anchor="middle" font-size="18px" width="76" fill="#323232" font-weight="400" align="middle" anchor="middle" family="微软雅黑" size="18px" weight="400" font-style="" y="2.3000000000000003" transform="rotate(0)"><tspan id="SvgjsTspan1234" dy="22" x="49.5"><tspan id="SvgjsTspan1235" style="text-decoration:;">Class GH</tspan></tspan></text></g></g><g id="SvgjsG1236" transform="translate(458.75086975097656,435.7547912597656)"><path id="SvgjsPath1237" d="M 0 0L 99 0L 99 32L 0 32Z" stroke="none" fill="none"></path><g id="SvgjsG1238"><text id="SvgjsText1239" font-family="微软雅黑" text-anchor="middle" font-size="18px" width="61" fill="#323232" font-weight="400" align="middle" anchor="middle" family="微软雅黑" size="18px" weight="400" font-style="" y="2.3000000000000003" transform="rotate(0)"><tspan id="SvgjsTspan1240" dy="22" x="49.5"><tspan id="SvgjsTspan1241" style="text-decoration:;">Class IJ</tspan></tspan></text></g></g><g id="SvgjsG1242"><path id="SvgjsPath1243" d="M169.50086975097656 162.00479125976562C 169.50086975097656 202.30590786960659 170.25086975097656 222.45367464992466 170.25086975097656 262.7547912597656" stroke="#323232" stroke-width="2" fill="none" marker-end="url(#SvgjsMarker1244)"></path></g><g id="SvgjsG1246"><path id="SvgjsPath1247" d="M607.5008697509766 95.00479125976562C 607.5008697509766 150.58410395792697 564.330182449138 192.75479125976562 508.75086975097656 192.75479125976562" stroke="#323232" stroke-width="2" fill="none" marker-end="url(#SvgjsMarker1248)"></path></g></svg>