<svg xmlns="http://www.w3.org/2000/svg" width="178" height="61.41" viewBox="0 0 178 61.41"><path id="Path_476" data-name="Path 476" d="M56.16,9.12,50.08,7.6l6.08-1.52L57.68,0,59.2,6.08,65.28,7.6,59.2,9.12,57.68,15.2ZM178,26.42v-.9h-3.9v.9h1.01v6.33H174.1v.9H178v-.9h-1.01V26.42Zm-9.08-.91,2.94,8.13h-1.97l-.61-1.8h-2.89l-.61,1.8h-1.85l2.98-8.13h2.01Zm-.15,4.81-.94-2.75-.94,2.75Zm-9.54,7.78a12.961,12.961,0,0,1-4.27,10.07,14.538,14.538,0,0,1-9.63,3.42,13.971,13.971,0,0,1-9.3-3.3,12.8,12.8,0,0,1-4.14-9.95c0-8.85,6.81-13.49,13.53-13.49C152.28,24.85,159.23,29.4,159.23,38.1Zm-6.01.24c0-5.78-3.87-8.36-7.71-8.36-3.81,0-7.66,2.53-7.66,8.17,0,6.13,3.93,8.31,7.61,8.31C150.18,46.46,153.22,43.27,153.22,38.34ZM131.51,25.39a7.96,7.96,0,0,0-2.66-.4c-3.48,0-6.01,2.18-7.71,4.45V25.46h-5.73V51.08h5.73V37.41c1.77-4.63,4.44-7.29,7.33-7.29a6.077,6.077,0,0,1,1.88.34l.58.21,1-5.12Zm-27.84.07h5.74v24.9c0,6.41-5.67,11.05-13.49,11.05-4.2,0-8.84-1.28-11.53-3.18l-.28-.2,1.01-5.38.67.45a19.874,19.874,0,0,0,10.18,3c3.55,0,7.71-1.61,7.71-6.16V47.05a10.443,10.443,0,0,1-8.59,3.84c-7.6,0-12.51-5.06-12.51-12.88,0-7.99,4.91-13.16,12.51-13.16a10.683,10.683,0,0,1,8.59,3.93V25.46Zm0,12.61c-1.02-4.81-4.3-8.04-8.17-8.04-4.45,0-7,2.88-7,7.89,0,4.81,2.7,7.8,7.05,7.8,4.12,0,7.15-2.83,8.13-7.57v-.08Zm-23.83.17a7.915,7.915,0,0,1-.16,1.72l-.1.4H60.82c.6,4.2,3.21,6.24,7.97,6.24a15.754,15.754,0,0,0,8.17-2.04l.6-.33,1.15,4.53-.31.21a18.825,18.825,0,0,1-10.16,2.66c-8.42,0-13.44-4.92-13.44-13.16,0-8.02,5.26-13.63,12.79-13.63C73.5,24.85,79.84,28.37,79.84,38.24Zm-6.03-2.3c-.56-3.96-2.74-6.05-6.33-6.05-3.63,0-5.9,2.09-6.59,6.05ZM44.59,51.08h5.74V17.13H44.59V51.08Zm-11.75,0h5.74V17.13H32.84V51.08ZM21.1,25.46h5.74V51.08H21.1V47.45a10.181,10.181,0,0,1-8.55,4.15C6.3,51.59,0,47.48,0,38.29c0-8.04,5.04-13.44,12.55-13.44a10.707,10.707,0,0,1,8.55,3.9Zm.52,11.92-2.74-3.64a7.037,7.037,0,0,0-5.9-3.35c-3.96,0-7.18,3.48-7.18,7.77s3.21,7.77,7.18,7.77a7.067,7.067,0,0,0,6.11-3.71l2.48-3.3.01-.01a2.552,2.552,0,0,0,.17-.22l.03-.04h0A1.018,1.018,0,0,0,21.62,37.38Z" fill="#fff"></path></svg>