<?xml version="1.0" encoding="UTF-8" standalone="no"?>
<!-- Created with Inkscape (http://www.inkscape.org/) -->

<svg
   xmlns:dc="http://purl.org/dc/elements/1.1/"
   xmlns:cc="http://creativecommons.org/ns#"
   xmlns:rdf="http://www.w3.org/1999/02/22-rdf-syntax-ns#"
   xmlns:svg="http://www.w3.org/2000/svg"
   xmlns="http://www.w3.org/2000/svg"
   xmlns:sodipodi="http://sodipodi.sourceforge.net/DTD/sodipodi-0.dtd"
   xmlns:inkscape="http://www.inkscape.org/namespaces/inkscape"
   width="110.461mm"
   height="40.919117mm"
   viewBox="0 0 391.39724 144.989"
   id="svg4401"
   version="1.1"
   inkscape:version="0.91 r13725"
   sodipodi:docname="logo_nav.svg">
  <defs
     id="defs4403" />
  <sodipodi:namedview
     id="base"
     pagecolor="#ffffff"
     bordercolor="#666666"
     borderopacity="1.0"
     inkscape:pageopacity="0.0"
     inkscape:pageshadow="2"
     inkscape:zoom="1.4"
     inkscape:cx="115.69862"
     inkscape:cy="117.49451"
     inkscape:document-units="px"
     inkscape:current-layer="layer1"
     showgrid="false"
     fit-margin-top="0"
     fit-margin-left="0"
     fit-margin-right="0"
     fit-margin-bottom="0"
     inkscape:window-width="2560"
     inkscape:window-height="1371"
     inkscape:window-x="0"
     inkscape:window-y="0"
     inkscape:window-maximized="1" />
  <metadata
     id="metadata4406">
    <rdf:RDF>
      <cc:Work
         rdf:about="">
        <dc:format>image/svg+xml</dc:format>
        <dc:type
           rdf:resource="http://purl.org/dc/dcmitype/StillImage" />
        <dc:title />
      </cc:Work>
    </rdf:RDF>
  </metadata>
  <g
     inkscape:label="Layer 1"
     inkscape:groupmode="layer"
     id="layer1"
     transform="translate(-144.30138,-374.15343)">
    <g
       transform="scale(1.0294976,0.97134757)"
       style="font-style:normal;font-weight:normal;font-size:184.73492432px;line-height:125%;font-family:sans-serif;letter-spacing:0px;word-spacing:0px;fill:#ffffff;fill-opacity:1;stroke:none;stroke-width:1px;stroke-linecap:butt;stroke-linejoin:miter;stroke-opacity:1"
       id="text4319">
      <path
         d="m 162.33498,494.3684 6.46573,0 q 3.32522,0 4.61837,-1.47788 1.47788,-1.47787 1.47788,-4.98784 l 0,-49.13949 q 0,-3.50996 -1.47788,-4.98784 -1.29315,-1.47788 -4.61837,-1.47788 l -6.46573,0 q -3.32522,0 -4.43363,1.10841 -1.10841,0.92367 -1.10841,4.2489 l 0,51.35631 q 0,3.1405 1.10841,4.2489 1.10841,1.10841 4.43363,1.10841 z m 12.56198,-75.55658 16.62614,0 0,99.38739 q 0,16.25667 -17.36508,16.25667 l -30.85073,0 0,-13.11618 26.04762,0 q 3.32523,0 4.43364,-1.10841 1.10841,-1.10841 1.10841,-4.2489 l 0,-15.333 q -2.40156,7.20466 -11.45357,7.20466 l -6.65045,0 q -16.62615,0 -16.62615,-16.4414 l 0,-56.15942 q 0,-16.44141 16.62615,-16.44141 l 6.65045,0 q 9.05201,0 11.45357,7.20466 l 0,-7.20466 z"
         style="font-style:normal;font-variant:normal;font-weight:normal;font-stretch:normal;font-family:Teko;-inkscape-font-specification:Teko;fill:#ffffff"
         id="path4205" />
      <path
         d="m 241.67403,418.81182 16.62615,0 0,90.15064 -16.62615,0 0,-7.20466 q -2.40155,7.20466 -11.45356,7.20466 l -6.65046,0 q -16.62614,0 -16.62614,-16.25667 l 0,-73.89397 16.62614,0 0,71.30768 q 0,3.32523 1.10841,4.43364 1.10841,0.92367 4.43364,0.92367 l 6.46572,0 q 3.32523,0 4.61838,-1.47788 1.47787,-1.47787 1.47787,-4.98784 l 0,-70.19927 z"
         style="font-style:normal;font-variant:normal;font-weight:normal;font-stretch:normal;font-family:Teko;-inkscape-font-specification:Teko;fill:#ffffff"
         id="path4207" />
      <path
         d="m 291.22628,508.96246 -16.62614,0 0,-90.15064 16.62614,0 0,90.15064 z m -16.99561,-107.33099 0,-16.44141 17.36508,0 0,16.44141 -17.36508,0 z"
         style="font-style:normal;font-variant:normal;font-weight:normal;font-stretch:normal;font-family:Teko;-inkscape-font-specification:Teko;fill:#ffffff"
         id="path4209" />
      <path
         d="m 324.06004,508.96246 -16.62615,0 0,-123.58766 16.62615,0 0,123.58766 z"
         style="font-style:normal;font-variant:normal;font-weight:normal;font-stretch:normal;font-family:Teko;-inkscape-font-specification:Teko;fill:#ffffff"
         id="path4211" />
      <path
         d="m 361.32742,495.47681 6.46572,0 q 3.32523,0 4.61837,-1.47788 1.47788,-1.47787 1.47788,-4.98784 l 0,-50.43263 q 0,-3.50997 -1.47788,-4.98785 -1.29314,-1.47788 -4.61837,-1.47788 l -6.46572,0 q -3.32523,0 -4.43364,1.10841 -1.10841,1.10841 -1.10841,4.24891 l 0,52.64945 q 0,3.32523 1.10841,4.43364 1.10841,0.92367 4.43364,0.92367 z m 12.56197,-110.10201 16.62614,0 0,123.58766 -16.62614,0 0,-7.20466 q -2.40155,7.20466 -11.45356,7.20466 l -6.65046,0 q -16.62615,0 -16.62615,-16.25667 l 0,-57.6373 q 0,-16.4414 16.62615,-16.4414 l 6.65046,0 q 9.05201,0 11.45356,7.20466 l 0,-40.45695 z"
         style="font-style:normal;font-variant:normal;font-weight:normal;font-stretch:normal;font-family:Teko;-inkscape-font-specification:Teko;fill:#ffffff"
         id="path4213" />
      <path
         d="m 404.43994,508.96246 0,-22.72239 18.65823,0 0,22.72239 -18.65823,0 z"
         style="font-style:normal;font-variant:normal;font-weight:normal;font-stretch:normal;font-family:Teko;-inkscape-font-specification:Teko;fill:#ffffff"
         id="path4215" />
      <path
         d="m 458.02462,495.47681 6.46572,0 q 3.32523,0 4.61838,-1.47788 1.47787,-1.47787 1.47787,-4.98784 l 0,-50.2479 q 0,-3.50996 -1.47787,-4.98784 -1.29315,-1.47788 -4.61838,-1.47788 l -6.46572,0 q -3.32523,0 -4.43364,1.10841 -1.10841,0.92367 -1.10841,4.2489 l 0,52.46472 q 0,3.32523 1.10841,4.43364 1.10841,0.92367 4.43364,0.92367 z m 12.56197,-76.66499 16.62615,0 0,90.15064 -16.62615,0 0,-7.20466 q -2.40155,7.20466 -11.45356,7.20466 l -6.65046,0 q -16.62614,0 -16.62614,-16.25667 l 0,-57.45256 q 0,-16.44141 16.62614,-16.44141 l 6.65046,0 q 9.05201,0 11.45356,7.20466 l 0,-7.20466 z"
         style="font-style:normal;font-variant:normal;font-weight:normal;font-stretch:normal;font-family:Teko;-inkscape-font-specification:Teko;fill:#ffffff"
         id="path4217" />
      <path
         d="m 519.98008,508.96246 -16.62614,0 0,-90.15064 16.62614,0 0,90.15064 z m -16.99561,-107.33099 0,-16.44141 17.36508,0 0,16.44141 -17.36508,0 z"
         style="font-style:normal;font-variant:normal;font-weight:normal;font-stretch:normal;font-family:Teko;-inkscape-font-specification:Teko;fill:#ffffff"
         id="path4219" />
    </g>
  </g>
</svg>
