<svg class="svg-icon" viewBox="0 0 192 56" xmlns="http://www.w3.org/2000/svg">
    <path d="m192 15.7742842c-.217575.252967-.224514.5816183-.288603.8827106-.053883.2521442.00449.511281-.143281.7679499-.108583.1896223-.01592.4430006-.135116.6922655-.131443.2751787-.084908.6437288-.153895.9777274-.181244.8781859-.274724 1.7761156-.466173 2.6555355-.019594.0904922-.002449.1887996-.002449.3076735h-8.53399c-.094296.1509575-.21635.2624275-.233495.3882939-.073478.548712-.117156 1.1015372-.177162 1.7070125h8.06251c-.399227 2.1812739-.787841 4.3041392-1.178904 6.4418124h-7.962499l-.235128.2369251c-.028574.3315306.013879.65648-.133484.9933578-.124503.2850505-.077559.6461968-.111849 1.0237962h9.484298c-.418005 2.3289408-.82458 4.5986503-1.232787 6.8741184h-18.4118c.073069-.5408967.229004-1.0320227.305339-1.544949.102868-.6939109.155935-1.4034522.396778-2.0763853.063272-.1764598.007348-.3924072.035922-.5857315.027758-.1822184.138383-.3590896.136342-.5376061-.008573-.7259944.377184-1.3911122.305339-2.1228653.308605-.3562103.076743-.8255359.271458-1.2368642.173897-.3685501.060823-.8654347.189409-1.2685364.208185-.6536007.19349-1.3433982.413922-1.9965876.142873-.4216115.108583-.9024543.170631-1.3545041.024901-.1826297.103685-.3570329.142056-.5384287.03878-.1830411.008164-.3578556.106134-.5569385.152262-.3084962.032249-.6902089.172672-1.0492985.144097-.3660822.062456-.8177206.182877-1.1986106.205737-.6531894.105726-1.3689006.433108-1.9900063-.08409-.4203776.115523-.8053808.149813-1.2109505.01592-.1875657-.079193-.4043358.132259-.5437761.053475-.6392041.191041-1.2640118.303707-1.8933441.045719-.2558462.042453-.5100471.143689-.7658933.083274-.2089548-.052659-.488658.163283-.6811596-.084499-.4689143.144505-.8958731.179611-1.3964596h17.519458zm-87.147159-.5740086c-.115931 2.0796759.222882 4.1186302.150221 6.1732151-.029391.8255359.106134 1.6555964.130218 2.4844229.0249.8481589-.080825 1.7098917.034289 2.5428315.083275.5980713.08205 1.199022.140424 1.879359.130626-.1497235.242883-.2229399.27105-.3204248.283704-.97855.727426-1.8945781 1.082158-2.8451578.41923-1.1225149.916835-2.2145915 1.307081-3.3498576.134709-.3915846.326566-.7650706.493115-1.141436.60578-1.3709572 1.050319-2.808961 1.714064-4.1544158-.041637-.3998111.37351-.6573026.328607-1.0669856-.006531-.0596426.132668-.1357384.209411-.2097775h8.805856c.066538.5413081.15716 1.0628724.188592 1.5877273.032249.5470666-.066129 1.1105864.02286 1.6444905.154711.9291906.017145 1.8748344.164916 2.7822246.132667.8136074.078376 1.6115842.1094 2.4153197.018777.4845448.224514.9361832.167365 1.4371811-.053884.4680916-.115523.9789613.013879 1.4141467.171855.5775049.04776 1.1570665.176346 1.8382261.357589-.8543288.68538-1.603769.984597-2.364315.313095-.7934523.591901-1.6004784.897648-2.39681.289011-.7531421.60129-1.497235.888668-2.2507884.311871-.8189547.590269-1.6510718.913161-2.4655018.398411-1.007343.850705-1.9932969 1.176046-3.0302556.068579-.2188266.199206-.4179095.295951-.6157584h9.692892c-.052251.1789278-.075927.3348212-.14124.4705595-.378817.7909843-.804578 1.5614022-1.145431 2.3688397-.782126 1.8526226-1.763049 3.6069378-2.613754 5.4254202-.791923 1.6934386-1.664263 3.3494463-2.428019 5.0548134-.868666 1.9398243-1.873265 3.8105454-2.775813 5.7322712-.833968 1.7752929-1.693245 3.538246-2.545175 5.304901-.030615.0637559-.10246.1073567-.179203.1846864h-9.320198c0-.166588-.002857-.3562103.000408-.546244.01592-.8321171-.257579-1.6469585-.148995-2.4848342-.260845-.5857315-.047353-1.2187658-.164916-1.8069652-.14124-.7062507-.025717-1.4281319-.162467-2.1076462-.124095-.6145245-.012246-1.2261697-.135525-1.8131351-.142873-.6811597-.025717-1.3779498-.160426-2.0331958-.129401-.6318003-.066946-1.2566079-.153486-2.0192106-.124503.2188267-.201246.3385232-.263294.4656236-.473521.9756707-.980106 1.9377676-1.403418 2.9352387-.289827.682805-.657622 1.3252998-.945817 2.0023462-.5968 1.4013955-1.267485 2.7670054-1.887552 4.1564724-.302482.6762237-.622925 1.338051-.955206 1.9982329-.19594.3887052-.317994.8152527-.482502 1.2496153h-9.3169323c-.0142873-.5396627-.2347194-1.0793254-.1930822-1.6704042.0212268-.2986243-.082458-.6075319-.137566-.9102695-.0551081-.3035603.1498122-.6474307-.1432809-.9160281-.0249007-.0226231-.0012246-.0962508-.0044903-.1456102-.0489849-.7037827-.0906221-1.4079768-.1522615-2.1101142-.0269417-.3060282-.0991944-.6075319-.1440973-.9123261-.0444946-.3047943.1073586-.6404382-.1461383-.9147942-.0249007-.0267363-.0008165-.0970734-.0040821-.1464328-.0485767-.7535535-.0902139-1.5075182-.1522615-2.2598377-.0249007-.3060282-.1098079-.6067092-.1404234-.9127375-.0310238-.3080849.066946-.6350909-.1514451-.9123261-.011838-.0152192 0-.0489481-.0016328-.0736278-.0493932-.7033714-.0906221-1.4075654-.1526697-2.1097028-.0265335-.3060283-.0987863-.6079433-.1432809-.9123262-.0453111-.3047943.1077668-.6416721-.1481794-.9131488-.0126544-.0131625 0-.0485367-.002041-.0736278-.048985-.7033714-.0910304-1.4075654-.1518533-2.1097028-.029391-.330708-.0881729-.6593593-.1477712-.9867766-.0591901-.3278286.1555271-.6947335-.1408316-.9908898-.0249007-.0250911-.0024493-.0962509-.005715-.1456103-.0489849-.7037827-.1130735-1.4063314-.1424644-2.1105255-.0138791-.3385231-.2277799-.6264529-.1665488-.9884218.0506178-.3010924.0506178-.6227511-.1285854-.9147942-.0538834-.0880242-.0085724-.2381591-.0085724-.3854146zm-64.56715 11.4330345c.1310346-.4018677-.0514342-.897107-.159201-1.3878216-.0673543-.3052056-.2816634-.5783276-.4314756-.8650235-.298808-.5717463-.7315082-1.0114562-1.3042236-1.30062-.9180591-.4631557-1.7242693-.4804315-2.8182659-.276824-1.0674631.1986716-1.8977576.6778691-2.5525227 1.5556436-.740897.9929466-1.1572688 2.0825552-1.2054373 3.3177741-.0146955.3738974-.0281664.7510854.0053067 1.1225149.0314319.3496291.0722527.7157112.2028792 1.0357246.3682033.903277.9384695 1.6280374 1.8565286 2.0562302.3171774.1480782.670277.1168172.9392859.2439177.7143635.3372892 1.3842323.0666352 2.0173624-.0974848 1.3466772-.3479838 2.2998422-1.2385095 2.8607196-2.5374843.3792249-.8773632.6294562-1.7802288.5890437-2.8665469zm-5.6589833 14.0197137c-.3224841 0-.6478256-.0283817-.9658194.0078152-.3486094.0394875-.6539488-.1073567-.9805149-.1563048-.3269744-.048948-.6861972.1201079-.9792903-.1513688-.8939748.0497708-1.6797747-.3595009-2.5043542-.6017733-.7829424-.2303438-2.3084145-1.1192243-2.9203179-1.5860819-.4086159-.3121982-.7951886-.6412608-1.1364502-1.0200942-.7286507-.8086714-1.3707614-1.6778081-1.8087683-2.6896757-.3437109-.7938636-.5482229-1.6210448-.764573-2.4576865-.3628966-1.4050975-.3273826-2.8225348-.2400261-4.2255756.0575573-.9213754.2910521-1.8489207.5098514-2.7670055.318402-1.3355829.9503075-2.5115705 1.5593534-3.6982527.3759593-.7321643.8715234-1.4203166 1.4675066-2.0126293.4237196-.4207889.835193-.8543289 1.2642193-1.2693592.6335383-.6124678 1.3789256-1.0682195 2.1116584-1.5482397.6453764-.4224341 1.3442279-.704194 2.0406303-1.0106336.4024928-.1776938.8180482-.3035603 1.2319708-.4392986.4204539-.1382063.8351929-.2875185 1.2887117-.3113755.2514559-.0131625.479644-.1632974.7572253-.1534255.2747237.0098719.5514886-.1057113.8307026-.1312137.2702335-.025091.5723072.0691032.8119251-.0205664.5241387-.1974376 1.0535841-.1324477 1.5797638-.1258665.4012682.004936.8017199.0917262 1.2025799.1406743.3763675.0464801.752735-.0612879 1.1376748.1299797.2547216.1262778.622925-.0588199.8956077.1698786.7021173-.0353742 1.3103467.3068509 1.939803.5285569 1.1923747.4203775 2.2553475 1.0678082 3.2534153 1.8727777.7270179.5865542 1.3176945 1.2627779 1.7985631 2.0270259.615169.9777273 1.141757 2.0101613 1.365863 3.1754544.1114407.5824409.1881837 1.1747536.3159528 1.7444433.1824688.8140187.1620584 1.6239241.0942959 2.4149084-.0942959 1.1019485-.235944 2.2006064-.5200566 3.2910377-.3379959 1.2969181-.8666249 2.4901815-1.4597507 3.6661691-.361672.7169452-.8617264 1.3520361-1.3625973 1.9780778-.2408425.300681-.5053611.5832635-.7523268.8777746-.3841234.4578084-.8862189.8189546-1.3544331 1.2010786-.328199.2681861-.6715017.5227983-1.0294998.7494402-1.1927829.7539647-2.472514 1.3417529-3.8130681 1.7497905-.5931258.1801618-1.2095194.4277815-1.8659174.3516857-.4261688.359501-1.0152125-.0752731-1.4381157.2998584zm60.0604147-23.269541c-1.7214118 2.150013-3.4501714 4.1655217-5.1168835 6.2246311-.4469874-.2422724-.6808904-.6211057-1.0544004-.8625554-.7788603-.5022319-1.5948675-.8173094-2.4978229-.9974711-.4057585-.0810317-.8013117-.1484896-1.2054374-.1213419-.349834.0230344-.7029336.0830883-1.0409296.1756372-.3698362.1015981-.5241387.3150775-.7947804.9226094.1212377.7769991.7482447.9740254 1.3548414 1.1323868.8262124.215536 1.6279323.5009978 2.439041.760546.8331519.2665407 1.6638545.6071205 2.3712785 1.085084 1.3164698.8880578 2.3561748 2.0595208 2.8015294 3.6674031.1338921.4841334.2881946.9526363.2588037 1.4651514-.0179612.3163114-.0016329.3171341.1404234.6017733-.0493931.187977-.1453219.3701955-.1351167.5466553.0351058.6137018-.0526588 1.2121845-.1608339 1.8098445-.0285745.1579501-.0979698.3084962-.1449137.4631557-.2314538.7551987-.7523268 1.7518472-1.1899254 2.2742341-.263294.3142548-.4963806.6614159-.7943722.9382398-.7964132.7399796-1.6797747 1.3635533-2.6619224 1.8328789-.8556033.408449-1.7495782.7041941-2.6766179.903277-.6959941.1493121-1.4099493.1990829-2.1006368.3290626-.8817286.1661766-1.7520274.0324949-2.6186523.1299797-.3579982.0398989-.6433354-.1587727-.9801067-.1702899-.3024819-.0102832-.5967997.0555294-.9188755-.1143492-.2645186-.1394403-.6433354-.1020095-.9686769-.1493122-.723344-.1053001-1.387498-.3677275-2.0749197-.575037-1.4605672-.4401212-2.7835683-1.1875048-4.1433081-1.8534453-.1187885-.0579973-.2163501-.1608293-.3735101-.2813485 1.7189626-2.177572 3.4032276-4.3111319 5.1038208-6.4652582.2959506-.0024679.5523051.1530142.7784521.3784221.9421434.9407078 2.1157405 1.4001615 3.3734284 1.7436206.733141.2003169 1.450362.0859676 2.173706.1184626.1857345.0082265.3955533-.1229872.5645512-.2352798.1616503-.1081794.284929-.27559.4294345-.4212002v-.7465609c-.404942-.5227982-1.0058237-.7251717-1.5830294-.9941805-.6731345-.3134321-1.4026016-.4290154-2.0839003-.7190018-.6764001-.2875185-1.3532085-.576271-1.9961356-.9263113-1.0654221-.5803843-1.9422522-1.3902897-2.5043542-2.4856569-.3302401-.6424948-.5347521-1.3244771-.6376205-2.0640454-.0775594-.5594065-.1322593-1.1126431-.1049093-1.6646456.0718445-1.4277205.446171-2.7744094 1.2585043-3.9635595.4351494-.6367362.8776465-1.275529 1.4679149-1.7843421.5016872-.4323061 1.0303162-.8275926 1.6001741-1.1677611.8339684-.4981185 1.7144724-.8929937 2.6455941-1.1558325.5812878-.16412 1.1540032-.3965205 1.7720296-.3895279.3135035.003702.5743482-.2089547.9062211-.1637086.3008491.0407215.6294563.0810316.9033636-.139029.571899.0691032 1.1625756-.1439649 1.7267186.1394403.1391988.0699258.342078.0172758.5155663.0094605 1.0564415-.0485367 2.0524683.2936885 3.0689055.494828.448212.0888469.8760137.2788806 1.318919.4022791.4229032.1180512.784167.3706068 1.2042127.5108697.5906766.1982602 1.0772601.6363249 1.5993578.9855426.2371687.1583614.4637239.3327646.7857998.5655764zm-33.2886437 4.7212262c-.0628639.3311193-.120013.6326229-.1636912.8633781.4714798.729285 1.2082947.8185433 1.8646927 1.0427172.6306809.2151247 1.283405.3599123 1.908371.6017733 1.0388886.4022791 2.0349154.848159 2.9427693 1.5367225.8854025.6716991 1.5177162 1.494767 1.963479 2.4774303.340037.7498515.6045556 1.5334319.571899 2.3836475-.0142873.3738974-.0134709.7490288-.0004082 1.1229263.0469439 1.3656099-.4400479 2.5806737-1.049502 3.75625-.1404235.270654-.3424863.516217-.5474065.7445042-.9850052 1.0966012-2.075328 2.0525282-3.4313939 2.6765132-.8641757.3977545-1.7418223.7161226-2.6753933.9152055-.3314646.0707484-.7008926.0180984-.9711261.1530141-.3441191.1711126-.6759919.0366082-.9894954.1312137-.8396833.2537896-1.6952866.0900809-2.5415012.1456102-.3645294.0238571-.7053829-.0682805-1.0548086-.1460215-.3212595-.0715711-.64456.0176871-.9894955-.1271005-.3024819-.1271004-.6931367-.1036547-1.0446035-.156716-.489441-.0740391-.955206-.2295212-1.4295433-.3418139-.4155555-.0987188-.8311109-.2558462-1.2331955-.4273701-.3792249-.161652-.7747782-.2862845-1.1499211-.4565744-.3971861-.1801618-.7809013-.3911732-1.1670658-.596426-.3665705-.1945583-.7278343-.3985771-1.0919556-.5980713-.3020737-.165354-.3020737-.1649427-.3416698-.4664463 1.7120231-2.154949 3.3979209-4.2769916 5.1156588-6.4389332.4065749.4392987.898057.7556101 1.3621891 1.1072958.4743374.3590896 1.0005171.6075319 1.5234311.8284152.5220977.2212946 1.0633811.4787861 1.6630382.4746728.6188429-.0049359 1.2380939-.0012339 1.8010124-.0012339.1685897-.087613.3061557-.1328591.4122897-.2184154.6808905-.5454213.5890437-1.274295-.1628748-1.7386847-.5380178-.3323532-1.1274697-.5573498-1.7107985-.7148885-.9164263-.2472084-1.8214227-.5544706-2.6504926-.9682669-1.4307679-.7136545-2.7186632-1.6704042-3.3893485-3.2285157-.1922658-.4467026-.3135035-.9180848-.4269852-1.3985163-.1857345-.784403-.1212377-1.5622248-.11389-2.3400466.007756-.8267699.2681925-1.6045917.5727154-2.3770663.5343439-1.3586173 1.4050509-2.4724943 2.509661-3.3556162.7853916-.627687 1.6438523-1.1747536 2.6304903-1.5391905.9841888-.3632029 1.9720514-.6375588 2.9864475-.8773632.4849508-.1143493.9535732-.0909036 1.4299516-.1299798.4510695-.0370195.8837697-.1818071 1.3511675-.15795.6751755.0341402 1.346269.135327 2.0157296.1962036.7302836.0670465 1.4764872.2147133 2.195341.4191435.6180264.1756372 1.254014.3315306 1.8291787.6087659.9584716.4615103 1.985114.8214226 2.7574429 1.6156975.1085833.11147.2559463.1850978.4339248.3105529-1.6887552 2.0595208-3.3738366 4.1145169-5.0560605 6.1662225-.499238-.3619689-.976841-.7074847-1.4540358-1.0534118-.4384151-.3175454-1.4785283-.677869-1.9904207-.7695952-.40086-.0715712-.7923312-.1447876-1.2033963-.1472556-.560061-.0028793-1.0768519.0925489-1.5422087.4199662-.053067.0374309-.1322593.0378422-.2681925.0736278zm86.5274593 15.4559486c1.794889-2.2573697 3.540793-4.4526288 5.312006-6.6799715.58088.7268171 1.334839 1.19532 2.085125 1.6309167.524547.3039716 1.135226.4837221 1.733658.6597706.698035.2052528 1.398112.1229871 2.09778.1279231.272682.0020566.567817-.0608766.813149-.1785165.264927-.1275118.373919-.4170869.429027-.710364.007756-.0427781.046944-.0797977.077967-.129157-.108991-.221706-.221248-.4487592-.360447-.7313418-.976841-.6959674-2.220242-.9242546-3.368122-1.3841197-.727018-.2908091-1.501796-.4730275-2.11125-1.0114563-.583329-.0937828-.829478-.6963788-1.340146-.8999863-.72661-.868314-1.343411-1.7847534-1.613645-2.9237215-.256354-1.0785028-.153486-2.1635868-.105317-3.2346857.031432-.6980241.25268-1.4240186.589451-2.0632227.396778-.7543761.820906-1.5005257 1.461384-2.0883138.219616-.2015509.424128-.4199662.631906-.6342682 1.00419-1.0357247 2.262287-1.6354413 3.579981-2.1413751.256354-.0987188.523322-.1645314.780085-.2706541.445763-.1834524.948675-.2270532 1.428727-.3212474.300033-.0588199.60129-.1205191.904996-.1460215.295543-.0246797.618027.0674578.886627-.0209777.524956-.1727579 1.051135-.141497 1.578131-.1262778.327383.0098719.631498.1809844.980515.1521914.326566-.027559.679666-.0962508.978066.1394403.599657-.0246797 1.163392.1612407 1.734883.2998584 1.467506.3553876 2.853371.9036882 4.104936 1.7662437.295543.2036075.571083.4372419.843766.647842v.3228927c-.624966.8806539-1.388723 1.6486039-2.027976 2.5226765-.386981.5293795-.901731.9629195-1.295652 1.4873631-.509851.6786917-1.029908 1.3433982-1.639362 1.9336543-.838458-.7613687-1.782643-1.3421642-2.870108-1.6708155-.449845-.1361497-.901731-.2418611-1.376885-.2751787-.540058-.0382535-1.059707.0608766-1.567925.1809845-.593126.1402629-.80172.7436816-.547407 1.3717799.026125.0641672.036331.1349156.048169.1813957.131851.0797977.243291.1686446.369428.2208833.767022.3187795 1.567517.5314362 2.36393.7613687.504137.1456102.973168.4117396 1.475263.5659877.67191.2060755 1.297284.5112811 1.841017.9361832.495564.3866486 1.043379.6972015 1.422195 1.2689478.363305.5478893.711098 1.0970126 1.046237 1.6630003.201246.3393459.222065.7074847.367795 1.0492985.198797.468503.24819 2.3688397.164916 2.8484485-.071845.4125623-.228188.8123734-.281255 1.2261696-.052251.4018678-.235536.7576667-.333914 1.1410247-.099195.3882939-.387798.7445042-.61966 1.0809708-1.097262 1.5901952-2.602732 2.7044835-4.343738 3.48066-.452702.2019622-.946633.357033-1.442606.4680916-.501687.1122926-1.010722.2003169-1.507511.3196021-.406983.0978961-.827028.0353742-1.202171.1472555-.750286.2237626-1.500572.1098247-2.248408.1201079-.548223.0074039-1.097263-.110236-1.647935-.1324477-.52373-.0213891-1.01113-.2184153-1.51445-.2846392-.770696-.1011868-1.506287-.3117868-2.238203-.5388401-1.056442-.3265946-2.025527-.8613214-3.004817-1.3680779-.489033-.2525556-.985413-.4907146-1.522206-.7572554zm-128.5156621 2.1932025h-19.4102759c.04449464-.3714295.02694171-.76178.1538943-1.0957786.08082513-.213068.10286834-.408449.13103467-.6198717.02816633-.2073095.14164807-.4100943.13593317-.6128792-.02163501-.7527308.37800032-1.442117.30574756-2.1981384.29268492-.6030073.19512328-1.2907482.42657704-1.9184352.15307789-.4150302.11062429-.9012203.17226365-1.3532701.02530888-.1822184.10327655-.3570329.14246449-.5384287.04000435-.1830411-.03918794-.3673162.10368475-.5614631.09633702-.1312137.02163501-.3813014.05184238-.5733917.02898274-.1826297.13879061-.3595009.13674958-.5380174-.00898057-.7259944.36861155-1.3923463.30493114-2.1232766.29227671-.3603236.09143853-.8251246.27268275-1.2352189.16654874-.3759541.05714907-.868314.18900016-1.2697705.21390083-.6531893.17593752-1.3462775.41188156-1.9982328.15103685-.4166756.10980787-.9016316.17185544-1.3536814.02490067-.1826298.10286834-.357033.14246449-.5380175.03959615-.1834524-.03959615-.3677274.10368475-.5618744.09633702-.1312137.02122681-.3813013.05184238-.5733916.02857454-.1826298.13838241-.359501.13634137-.5380175-.00898057-.7255831.36901976-1.3923462.30533936-2.1228653.2918685-.3607349.09103032-.8255359.27268274-1.2356302.16614053-.3759541.05674087-.868314.18859196-1.2697704.21430904-.6531894.17593751-1.3462776.41188156-1.9982329.15103685-.4162642.10695042-.902043.17144723-1.3536814.04694389-.3261834.12899364-.6470194.20777772-1.0320227.02041039-.0201551.0902139-.0909036.13552496-.136561h9.47858274c-1.2307462 7.0263099-2.4561857 14.0221816-3.6893812 21.0637107.0220432.023857.0885811.0950168.1775703.1896223h9.6247211c-.4743373 2.7061289-.9425516 5.3752382-1.4193382 8.0965862z"/>
    <path d="m129.91305 55.8029557c-.739711-.8780896-1.619091-1.4505255-2.171212-2.3408903-.063486-.1027029-.172435-.177582-.260087-.2655546-.333812-.3338868-.672539-.6624543-1.001026-1.0012513-1.425767-1.470575-2.890853-2.9059609-4.254363-4.4317746-.667624-.7475627-1.389723-1.4415235-2.108135-2.2402332.496827-.4451824.98751-.8666327 1.457304-1.3105875.468566-.4439549.911737-.9153246 1.374568-1.3658262.470614-.4578669.952286-.904686 1.449523-1.3760556.434979.4337255.842107.8216234 1.226708 1.2307984.364121.3874888.822447.6931425 1.063693 1.1878351h.304322c.294492-.8465831.59226-1.6915295.883066-2.5393402.522221-1.5225402.97768-3.0716768 1.577722-4.5627106.532461-1.3236811.866683-2.7111936 1.446656-4.0209628.320705-.7250582.498875-1.5286779.770839-2.2876976.162606-.4550026.287939-.923508.453821-1.3768739.166701-.4550026.29654-.9267814.470204-1.3707363.174073-.4447732.334631-.904686.525498-1.346595.390334-.9050951.591031-1.8899794.951466-2.8098048.519764-1.3277729.860949-2.7152854 1.43273-4.0262822.330125-.7561554.53287-1.5675495.795824-2.3527563.210936-.6325846.423511-1.26476.643459-1.8944803.022527-.0634222.101577-.1067947.162605-.168171h6.652894c.029081.4709605-.211346.8670419-.33586 1.2721252-.344052 1.1195028-.767153 2.214046-1.153392 3.3204552-.303093.8682694-.593899 1.7406305-.897402 2.6088999-.29572.8461739-.593898 1.6952121-.857262 2.5479328-.204383.6612269-.51362 1.2815362-.675815 1.9611759-.164244.6886415-.497647 1.3351381-.695067 2.0180512-.192095.6653185-.389106 1.3371839-.63158 1.9754969-.449315 1.1816975-.84989 2.3797619-1.283641 3.5659603-.347328.9509228-.576286 1.9460364-.941636 2.889594-.457097 1.1812883-.830639 2.3883546-1.229985 3.5884649-.21749.6534525-.47389 1.2942205-.696295 1.9464455-.371084 1.0884056-.723328 2.1837671-1.094002 3.2725818-.274422.8048473-.570553 1.6019202-.846203 2.4059491-.320706.9357833-.625437 1.8768858-.944914 2.8130782-.378047 1.1096827-.762648 2.2173195-1.146839 3.3249562-.119599.3457529-.247799.6882324-.418186 1.1587837"
          fill="#4d93ff"/>
    <path d="m142.901383 40.6699507h-6.704339c.135512-.4557535.247278-.8766384.385246-1.2880882.47777-1.4197686.962909-2.8366657 1.448867-4.2531526.426595-1.2417334.858513-2.481826 1.287155-3.7227391.217801-.6317375.438467-1.2622444.650537-1.8956229.365185-1.0936443.718907-2.1905704 1.089414-3.2825739.273479-.8064909.57357-1.6043672.848686-2.4104479.320561-.9381713.621879-1.8824959.940802-2.8210774.377877-1.1125144.768035-2.2209267 1.149187-3.3322105.426185-1.2421437.850324-2.4851078 1.270369-3.7293026.228854-.6772719.407353-1.3742343.677966-2.0338667.489643-1.1966094.832721-2.44162464 1.267504-3.65587344.241136-.67316969.406125-1.37505472.671007-2.03714849.471629-1.17938016.833129-2.39362896 1.230657-3.59721206.223532-.67809232.465078-1.35003135.701302-2.02361125.066733-.1903417.141243-.37740165.220258-.58702366.103168.05086718.178908.06727595.223942.11404093 1.478344 1.52560516 3.005407 3.00854753 4.410059 4.60019798.883076 1.0005246 1.859086 1.90095572 2.758948 2.87891826.795055.86433183 1.585198 1.73235563 2.413415 2.63729913-.057726.0619431-.111767.1407052-.183821.1944439-1.159012.8540764-2.051505 1.9883324-3.102026 2.9564497-.318923.293717-.664866.5583083-1.024729.8585888-.261606-.2715651-.533039-.5570777-.808974-.838488-.261198-.2666425-.526489-.5287726-.790143-.7929537-.274298-.2748469-.549006-.550104-.879392-.8807406-.210841.5464119-.428642.9791932-.543683 1.4382284-.282077 1.1235904-.768854 2.1741617-1.101696 3.2792922-.205519.683015-.434374 1.362338-.703759 2.0223806-.540818 1.3229569-.866701 2.7197532-1.436995 4.0340955-.329567.7580851-.527308 1.5727804-.796284 2.3579399-.239089.6969624-.503971 1.3844898-.741833 2.0818624-.230492.675631-.456072 1.3508518-.710719 2.0195091-.343077.9004311-.602637 1.8390126-.930157 2.7517503-.342258.9541698-.665685 1.9149031-.993614 2.8744058-.417179 1.2208123-.802425 2.4539312-1.256859 3.6612063-.284533.7552135-.544502 1.5169905-.799968 2.2816391-.01392.0422526-.067551.0713781-.13633.1398847"
          fill="#ffa362"/>
</svg>