<svg width="700" height="109" viewBox="0 0 700 109" fill="none" xmlns="http://www.w3.org/2000/svg" xmlns:xlink="http://www.w3.org/1999/xlink">
<path d="M181.164 83.3655H184.414L197.189 36.274L203.538 35.367V32.2679H186.38V35.367L193.258 36.3496L183.659 71.2714L172.396 36.274L180.03 35.367V32.2679H159.47V35.367L167.029 36.274L155.54 70.969L146.242 36.1984L153.197 35.367V32.2679H132.637V35.367L138.91 36.1229L152.516 83.3655H155.767L168.087 44.1352L181.164 83.3655Z" fill="white"/>
<path d="M219.157 49.4264C223.843 49.4264 227.396 53.2814 227.396 57.5899C227.396 59.782 226.564 61.5205 222.936 61.5205H209.179C210.011 52.7523 214.924 49.4264 219.157 49.4264ZM219.61 45.9493C210.162 45.9493 202.225 53.6593 202.225 65.2243C202.225 76.7893 208.877 83.819 219.081 83.819C225.96 83.819 230.797 80.4176 233.594 75.0508L231.78 73.6146C229.059 76.7893 226.111 78.9058 221.273 78.9058C214.017 78.9058 209.179 73.9926 209.028 64.6952H233.141C233.443 63.7126 233.67 62.2008 233.67 60.4623C233.67 51.3161 227.471 45.9493 219.61 45.9493Z" fill="white"/>
<path d="M248.921 37.6346C251.718 37.6346 253.985 35.5937 253.985 32.797C253.985 29.849 251.718 27.9593 248.921 27.9593C246.048 27.9593 243.856 29.849 243.856 32.797C243.856 35.5937 246.048 37.6346 248.921 37.6346ZM257.538 80.1152L252.247 79.057C252.171 75.2775 252.095 70.2887 252.095 66.9628V56.9852L252.322 46.7052L251.188 45.9493L239.548 50.5602V53.2058L245.595 53.8861C245.746 56.9096 245.822 59.2528 245.822 63.4102V66.9628C245.822 70.2887 245.746 75.2775 245.67 79.057L240.001 80.1152V82.8364H257.538V80.1152Z" fill="white"/>
<path d="M278.087 49.0484C282.773 49.0484 285.494 52.7523 285.494 58.119C285.494 63.7126 282.622 67.7187 277.784 67.7187C273.098 67.7187 270.452 63.9393 270.452 58.4214C270.452 52.9034 273.325 49.0484 278.087 49.0484ZM264.33 58.3458C264.33 63.4858 266.522 67.0384 270.15 69.0037C266.37 72.4808 265.01 75.0508 265.01 77.394C265.01 80.342 266.673 82.2317 269.999 83.1387C264.405 85.8599 262.591 88.5055 262.591 91.7558C262.591 97.1225 267.277 100.902 278.238 100.902C290.634 100.902 296.908 94.4014 296.908 87.8252C296.908 81.7025 293.053 78.0743 284.738 78.0743H274.836C271.284 78.0743 270.452 76.7893 270.452 74.7484C270.452 73.0099 271.057 71.5737 272.342 69.9108C274.005 70.4399 275.895 70.7423 277.935 70.7423C285.797 70.7423 291.617 66.2826 291.617 58.3458C291.617 55.6246 291.012 53.2814 289.878 51.4673H297.286V46.7052L296.152 45.9493L287.611 48.8973C285.192 46.932 281.866 45.9493 278.011 45.9493C270.15 45.9493 264.33 50.409 264.33 58.3458ZM278.54 97.4249C272.569 97.4249 268.789 95.4596 268.789 90.5464C268.789 88.052 269.621 86.0111 271.737 83.7434C272.72 83.819 273.778 83.8946 274.836 83.8946H283.68C289.122 83.8946 291.239 86.4646 291.239 89.7905C291.239 94.0234 286.779 97.4249 278.54 97.4249Z" fill="white"/>
<path d="M306.342 66.9628C306.342 70.2887 306.267 75.2775 306.191 79.057L300.522 80.1152V82.8364H318.059V80.1152L312.843 79.057C312.767 75.2775 312.692 70.2887 312.692 66.9628V56.3049C316.547 52.8279 319.646 51.3917 323.35 51.3917C327.809 51.3917 329.548 53.5837 329.548 60.5379V66.9628C329.548 70.4399 329.472 75.3531 329.397 79.1325L323.879 80.1152V82.8364H341.415V80.1152L336.124 79.057C336.049 75.2775 335.973 70.4399 335.973 66.9628V59.9331C335.973 50.0311 332.798 45.9493 326.298 45.9493C321.536 45.9493 316.169 48.8217 312.465 52.979V38.3149L312.767 27.5814L311.709 26.9767L300.144 30.3782V33.0237L306.342 33.7796V66.9628Z" fill="white"/>
<path d="M356.662 74.3705V50.9381H366.942V46.932H356.813L357.191 36.652H352.656L350.69 46.7808L343.963 47.6123V50.9381H350.237V68.777C350.237 71.7249 350.161 73.3123 350.161 75.202C350.161 81.0978 353.487 83.819 358.778 83.819C362.633 83.819 365.732 82.3828 367.698 79.8128L365.883 77.8475C363.994 79.2081 362.482 79.8884 360.819 79.8884C358.249 79.8884 356.662 78.2255 356.662 74.3705Z" fill="white"/>
<path d="M382.981 83.819C392.732 83.819 397.721 78.7546 397.721 73.0099C397.721 68.2478 394.849 64.6952 387.29 61.8984L384.946 61.067C379.806 59.1773 377.992 57.8923 377.992 54.5664C377.992 51.4673 380.411 49.4264 385.022 49.4264C386.836 49.4264 388.575 49.8799 390.238 50.7114L391.447 56.7584H395.378L395.68 49.0484C392.43 47.0831 389.179 45.9493 385.098 45.9493C376.632 45.9493 371.945 51.0893 371.945 56.6073C371.945 61.7473 375.574 64.7708 381.091 66.8117L384.569 68.0967C389.331 69.7596 391.598 71.4225 391.598 74.6728C391.598 78.0743 388.877 80.4175 383.132 80.4175C380.789 80.4175 378.824 80.0396 377.01 79.2081L375.574 72.632H371.416L371.719 80.9467C375.422 82.8364 378.748 83.819 382.981 83.819Z" fill="white"/>
<path d="M435.061 49.3508C432.264 45.8737 431.659 43.5305 431.659 40.8093C431.659 36.8032 434.683 33.7796 438.538 33.7796C442.242 33.7796 445.114 36.5008 445.114 40.8849C445.114 45.269 441.788 48.5949 437.102 51.8452C436.421 51.0893 435.741 50.2579 435.061 49.3508ZM468.924 83.0631L469.227 79.7373L461.895 78.7546C459.551 76.3358 457.586 74.1437 455.696 72.1784C459.173 66.9628 461.819 61.3693 463.558 54.4908L469.302 53.4326V50.409H453.958V53.4326L459.929 54.4152C458.569 60.3867 456.452 65.2999 453.656 69.9864C450.708 66.8117 447.986 63.9393 444.963 60.6134C442.317 57.7411 440.503 55.7002 438.916 53.8861C446.626 49.7287 450.103 46.0249 450.103 40.8093C450.103 35.1402 446.097 31.134 438.613 31.134C431.508 31.134 426.217 35.2158 426.217 41.8676C426.217 45.8737 427.653 49.7287 431.433 54.0373C431.508 54.1884 431.659 54.264 431.735 54.4152C424.176 58.1946 420.321 63.259 420.321 70.062C420.321 77.6964 426.822 83.819 436.27 83.819C443.527 83.819 448.364 81.0223 451.69 77.394C452.522 78.3767 453.429 79.2837 454.336 80.342C456.83 82.912 459.173 83.819 463.18 83.819C465.145 83.819 466.657 83.5923 468.924 83.0631ZM441.788 66.2826C444.358 69.1549 446.777 71.8761 449.498 74.9752C446.626 77.5452 442.544 78.9814 438.311 78.9814C430.979 78.9814 426.897 73.539 426.897 68.0211C426.897 64.2417 428.333 59.7064 433.549 56.5317C436.043 59.404 438.387 62.1252 441.788 66.2826Z" fill="white"/>
<path d="M500.756 59.404C500.756 65.9802 500.756 72.5564 500.605 78.9058L493.651 79.7373V82.8364H514.438C528.951 82.8364 534.62 75.8823 534.62 69.0037C534.62 62.8811 530.387 57.9678 520.334 56.5317C528.724 54.7931 532.05 49.9555 532.05 44.5887C532.05 37.4079 526.078 32.2679 515.572 32.2679H493.651V35.367L500.605 36.1984C500.756 42.699 500.756 49.1996 500.756 55.7002V59.404ZM512.095 58.4214C522.526 58.4214 527.061 61.974 527.061 69.0037C527.061 75.6555 522.375 79.2837 512.699 79.2837H508.088C507.937 72.8587 507.937 66.3581 507.937 58.4214H512.095ZM513.304 35.7449C521.014 35.7449 524.945 38.2393 524.945 45.1179C524.945 51.9964 521.014 54.9443 511.868 54.9443H507.937C507.937 48.9729 507.937 42.2455 508.088 35.7449H513.304Z" fill="white"/>
<path d="M549.428 37.6346C552.225 37.6346 554.493 35.5937 554.493 32.797C554.493 29.849 552.225 27.9593 549.428 27.9593C546.556 27.9593 544.364 29.849 544.364 32.797C544.364 35.5937 546.556 37.6346 549.428 37.6346ZM558.045 80.1152L552.754 79.057C552.678 75.2775 552.603 70.2887 552.603 66.9628V56.9852L552.83 46.7052L551.696 45.9493L540.055 50.5602V53.2058L546.102 53.8861C546.253 56.9096 546.329 59.2528 546.329 63.4102V66.9628C546.329 70.2887 546.253 75.2775 546.178 79.057L540.509 80.1152V82.8364H558.045V80.1152Z" fill="white"/>
<path d="M591.822 83.5923C594.468 83.5923 596.584 82.6096 598.398 79.6617L596.886 77.9987C596.055 78.9814 595.223 79.6617 593.938 79.6617C592.275 79.6617 591.217 78.4523 591.217 75.202V59.1017C591.217 49.5776 587.438 45.9493 579.501 45.9493C571.791 45.9493 566.198 49.5776 564.761 55.3223C564.988 57.2876 566.198 58.4214 568.314 58.4214C570.355 58.4214 571.564 57.1364 572.245 54.7931L573.681 49.8799C575.268 49.502 576.629 49.4264 577.763 49.4264C582.751 49.4264 584.868 51.2405 584.868 58.5726V60.4623C581.844 61.1426 578.67 62.1252 576.326 62.9567C566.122 66.6605 563.779 70.062 563.779 74.3705C563.779 80.6443 568.39 83.819 573.908 83.819C578.367 83.819 580.862 81.8537 585.019 77.772C585.624 81.3246 588.194 83.5923 591.822 83.5923ZM570.506 73.2367C570.506 70.969 571.338 68.0967 577.914 65.5267C579.501 64.922 582.222 64.0149 584.868 63.259V74.8996C580.559 77.9231 579.123 78.8302 576.553 78.8302C573.076 78.8302 570.506 77.2428 570.506 73.2367Z" fill="white"/>
<path d="M613.953 83.819C623.704 83.819 628.693 78.7546 628.693 73.0099C628.693 68.2478 625.821 64.6952 618.262 61.8984L615.919 61.067C610.779 59.1773 608.965 57.8923 608.965 54.5664C608.965 51.4673 611.383 49.4264 615.994 49.4264C617.808 49.4264 619.547 49.8799 621.21 50.7114L622.419 56.7584H626.35L626.652 49.0484C623.402 47.0831 620.152 45.9493 616.07 45.9493C607.604 45.9493 602.917 51.0893 602.917 56.6073C602.917 61.7473 606.546 64.7708 612.064 66.8117L615.541 68.0967C620.303 69.7596 622.57 71.4225 622.57 74.6728C622.57 78.0743 619.849 80.4175 614.104 80.4175C611.761 80.4175 609.796 80.0396 607.982 79.2081L606.546 72.632H602.388L602.691 80.9467C606.394 82.8364 609.72 83.819 613.953 83.819Z" fill="white"/>
<path d="M651.943 49.4264C656.63 49.4264 660.183 53.2814 660.183 57.5899C660.183 59.782 659.351 61.5205 655.723 61.5205H641.966C642.797 52.7523 647.711 49.4264 651.943 49.4264ZM652.397 45.9493C642.948 45.9493 635.012 53.6593 635.012 65.2243C635.012 76.7893 641.663 83.819 651.868 83.819C658.746 83.819 663.584 80.4176 666.381 75.0508L664.567 73.6146C661.846 76.7893 658.898 78.9058 654.06 78.9058C646.803 78.9058 641.966 73.9926 641.815 64.6952H665.927C666.23 63.7126 666.456 62.2008 666.456 60.4623C666.456 51.3161 660.258 45.9493 652.397 45.9493Z" fill="white"/>
<path d="M685.26 83.819C695.011 83.819 700 78.7546 700 73.0099C700 68.2478 697.128 64.6952 689.569 61.8984L687.225 61.067C682.085 59.1773 680.271 57.8923 680.271 54.5664C680.271 51.4673 682.69 49.4264 687.301 49.4264C689.115 49.4264 690.854 49.8799 692.517 50.7114L693.726 56.7584H697.657L697.959 49.0484C694.709 47.0831 691.458 45.9493 687.377 45.9493C678.911 45.9493 674.224 51.0893 674.224 56.6073C674.224 61.7473 677.853 64.7708 683.371 66.8117L686.848 68.0967C691.61 69.7596 693.877 71.4225 693.877 74.6728C693.877 78.0743 691.156 80.4175 685.411 80.4175C683.068 80.4175 681.103 80.0396 679.289 79.2081L677.853 72.632H673.695L673.998 80.9467C677.701 82.8364 681.027 83.819 685.26 83.819Z" fill="white"/>
<path d="M7.24792e-05 35.1175C7.24792e-05 41.3237 5.03123 46.3549 11.2375 46.3549C17.4437 46.3549 22.4749 41.3237 22.4749 35.1175C22.4749 28.9112 17.4437 23.8801 11.2375 23.8801C5.03123 23.8801 7.24792e-05 28.9112 7.24792e-05 35.1175Z" fill="#FFCC33"/>
<path d="M7.24792e-05 91.3045C7.24792e-05 97.5108 5.03123 102.542 11.2375 102.542C17.4437 102.542 22.4749 97.5108 22.4749 91.3045C22.4749 85.0983 17.4437 80.0671 11.2375 80.0671C5.03123 80.0671 7.24792e-05 85.0983 7.24792e-05 91.3045Z" fill="#FFCC33"/>
<path d="M4.21391 63.2114C4.21391 67.0904 7.35843 70.2349 11.2374 70.2349C15.1164 70.2349 18.2609 67.0904 18.2609 63.2114C18.2609 59.3324 15.1164 56.1879 11.2374 56.1879C7.35843 56.1879 4.21391 59.3324 4.21391 63.2114Z" fill="#FFCC33"/>
<path d="M4.21391 7.02349C4.21391 10.9025 7.35843 14.047 11.2374 14.047C15.1164 14.047 18.2609 10.9025 18.2609 7.02349C18.2609 3.14452 15.1164 0 11.2374 0C7.35843 0 4.21391 3.14452 4.21391 7.02349Z" fill="#FFCC33"/>
<path d="M43.124 73.6053C43.124 79.8115 48.1552 84.8427 54.3614 84.8427C60.5677 84.8427 65.5988 79.8115 65.5988 73.6053C65.5988 67.399 60.5677 62.3679 54.3614 62.3679C48.1552 62.3679 43.124 67.399 43.124 73.6053Z" fill="#FFCC33"/>
<path d="M47.3378 101.699C47.3378 105.578 50.4824 108.723 54.3613 108.723C58.2403 108.723 61.3848 105.578 61.3848 101.699C61.3848 97.8203 58.2403 94.6758 54.3613 94.6758C50.4824 94.6758 47.3378 97.8203 47.3378 101.699Z" fill="#FFCC33"/>
<path d="M47.3378 45.5122C47.3378 49.3912 50.4824 52.5357 54.3613 52.5357C58.2403 52.5357 61.3848 49.3912 61.3848 45.5122C61.3848 41.6333 58.2403 38.4887 54.3613 38.4887C50.4824 38.4887 47.3378 41.6333 47.3378 45.5122Z" fill="#FFCC33"/>
<path d="M47.3378 17.4183C47.3378 21.2972 50.4824 24.4418 54.3613 24.4418C58.2403 24.4418 61.3848 21.2972 61.3848 17.4183C61.3848 13.5393 58.2403 10.3948 54.3613 10.3948C50.4824 10.3948 47.3378 13.5393 47.3378 17.4183Z" fill="#FFCC33"/>
<path d="M86.248 35.1175C86.248 41.3237 91.2791 46.3549 97.4854 46.3549C103.692 46.3549 108.723 41.3237 108.723 35.1175C108.723 28.9112 103.692 23.8801 97.4854 23.8801C91.2791 23.8801 86.248 28.9112 86.248 35.1175Z" fill="#FFCC33"/>
<path d="M90.4619 7.02349C90.4619 10.9025 93.6064 14.047 97.4854 14.047C101.364 14.047 104.509 10.9025 104.509 7.02349C104.509 3.14452 101.364 0 97.4854 0C93.6064 0 90.4619 3.14452 90.4619 7.02349Z" fill="#FFCC33"/>
<path d="M90.4619 63.2114C90.4619 67.0904 93.6064 70.2349 97.4854 70.2349C101.364 70.2349 104.509 67.0904 104.509 63.2114C104.509 59.3324 101.364 56.1879 97.4854 56.1879C93.6064 56.1879 90.4619 59.3324 90.4619 63.2114Z" fill="#FFCC33"/>
<path d="M90.4619 91.3045C90.4619 95.1835 93.6064 98.328 97.4854 98.328C101.364 98.328 104.509 95.1835 104.509 91.3045C104.509 87.4255 101.364 84.281 97.4854 84.281C93.6064 84.281 90.4619 87.4255 90.4619 91.3045Z" fill="#FFCC33"/>
</svg>
